<?xml version="1.0" encoding="UTF-8" standalone="no"?>
<!DOCTYPE svg PUBLIC "-//W3C//DTD SVG 1.1//EN"
 "http://www.w3.org/Graphics/SVG/1.1/DTD/svg11.dtd">
<!-- Generated by graphviz version 2.44.0 (0)
 -->
<!-- Pages: 1 -->
<svg width="1015pt" height="1061pt"
 viewBox="0.00 0.00 1015.00 1061.00" xmlns="http://www.w3.org/2000/svg" xmlns:xlink="http://www.w3.org/1999/xlink">
<g id="graph0" class="graph" transform="scale(1 1) rotate(0) translate(4 1057)">
<polygon fill="white" stroke="transparent" points="-4,4 -4,-1057 1011,-1057 1011,4 -4,4"/>
<!-- Synchro0 -->
<g id="node1" class="node">
<title>Synchro0</title>
<polygon fill="#8b0000" stroke="black" points="612.51,-943.32 612.51,-965.68 594.64,-981.5 569.36,-981.5 551.49,-965.68 551.49,-943.32 569.36,-927.5 594.64,-927.5 612.51,-943.32"/>
<text text-anchor="middle" x="582" y="-950.8" font-family="Times-Roman" font-size="14.00" fill="#ffffff">main</text>
</g>
<!-- 1 -->
<g id="node2" class="node">
<title>1</title>
<ellipse fill="#0000ff" stroke="black" cx="176" cy="-810" rx="27" ry="27"/>
<text text-anchor="middle" x="176" y="-806.3" font-family="Times-Roman" font-size="14.00" fill="#ffffff">1</text>
</g>
<!-- Synchro0&#45;&gt;1 -->
<g id="edge1" class="edge">
<title>Synchro0&#45;&gt;1</title>
<path fill="none" stroke="black" d="M551.82,-942.91C478.21,-917.07 289.79,-850.94 211.22,-823.36"/>
<polygon fill="black" stroke="black" points="211.92,-819.9 201.33,-819.89 209.6,-826.5 211.92,-819.9"/>
</g>
<!-- 10 -->
<g id="node11" class="node">
<title>10</title>
<ellipse fill="#0000ff" stroke="black" cx="475" cy="-810" rx="27" ry="27"/>
<text text-anchor="middle" x="475" y="-806.3" font-family="Times-Roman" font-size="14.00" fill="#ffffff">10</text>
</g>
<!-- Synchro0&#45;&gt;10 -->
<g id="edge14" class="edge">
<title>Synchro0&#45;&gt;10</title>
<path fill="none" stroke="black" d="M565.05,-930.92C546.65,-906.42 517.2,-867.21 497.03,-840.34"/>
<polygon fill="black" stroke="black" points="499.63,-837.98 490.83,-832.08 494.03,-842.18 499.63,-837.98"/>
</g>
<!-- 19 -->
<g id="node20" class="node">
<title>19</title>
<ellipse fill="#0000ff" stroke="black" cx="686" cy="-810" rx="27" ry="27"/>
<text text-anchor="middle" x="686" y="-806.3" font-family="Times-Roman" font-size="14.00" fill="#ffffff">19</text>
</g>
<!-- Synchro0&#45;&gt;19 -->
<g id="edge27" class="edge">
<title>Synchro0&#45;&gt;19</title>
<path fill="none" stroke="black" d="M588.33,-927.38C594.38,-906.44 605.11,-877.16 622,-856 630.56,-845.28 642.33,-836.01 653.44,-828.72"/>
<polygon fill="black" stroke="black" points="655.49,-831.56 662.13,-823.31 651.8,-825.62 655.49,-831.56"/>
</g>
<!-- 28 -->
<g id="node29" class="node">
<title>28</title>
<ellipse fill="#00a200" stroke="black" cx="636" cy="-27" rx="27" ry="27"/>
<text text-anchor="middle" x="636" y="-23.3" font-family="Times-Roman" font-size="14.00" fill="#ffffff">28</text>
</g>
<!-- Synchro0&#45;&gt;28 -->
<g id="edge40" class="edge">
<title>Synchro0&#45;&gt;28</title>
<path fill="none" stroke="black" d="M585.6,-927.34C590.12,-904.9 600.14,-873.49 622,-856 645.32,-837.34 887,-840.87 887,-811 887,-811 887,-811 887,-113 887,-68.36 742.8,-42.56 672.99,-32.68"/>
<polygon fill="black" stroke="black" points="673.25,-29.19 662.86,-31.29 672.29,-36.12 673.25,-29.19"/>
</g>
<!-- 2 -->
<g id="node3" class="node">
<title>2</title>
<ellipse fill="#ffffff" stroke="black" cx="27" cy="-723" rx="27" ry="27"/>
<text text-anchor="middle" x="27" y="-719.3" font-family="Times-Roman" font-size="14.00" fill="#000000">2</text>
</g>
<!-- 1&#45;&gt;2 -->
<g id="edge2" class="edge">
<title>1&#45;&gt;2</title>
<path fill="none" stroke="black" d="M148.84,-809.68C118.21,-808.92 68.91,-802.84 40,-774 36.03,-770.04 33.23,-765.03 31.25,-759.73"/>
<polygon fill="black" stroke="black" points="34.6,-758.7 28.52,-750.02 27.86,-760.59 34.6,-758.7"/>
<text text-anchor="middle" x="58" y="-762.8" font-family="Times-Roman" font-size="14.00">d2v2</text>
</g>
<!-- 3 -->
<g id="node4" class="node">
<title>3</title>
<ellipse fill="#ff0000" stroke="black" cx="90" cy="-636" rx="27" ry="27"/>
<text text-anchor="middle" x="90" y="-632.3" font-family="Times-Roman" font-size="14.00" fill="#000000">3</text>
</g>
<!-- 1&#45;&gt;3 -->
<g id="edge4" class="edge">
<title>1&#45;&gt;3</title>
<path fill="none" stroke="black" d="M152.47,-796.28C136.02,-786.05 115.08,-770.1 104,-750 91.17,-726.73 87.96,-696.74 87.79,-673.51"/>
<polygon fill="black" stroke="black" points="91.3,-673.4 87.91,-663.36 84.3,-673.32 91.3,-673.4"/>
<text text-anchor="middle" x="122" y="-719.3" font-family="Times-Roman" font-size="14.00">d3v2</text>
</g>
<!-- 4 -->
<g id="node5" class="node">
<title>4</title>
<ellipse fill="#ff00ae" stroke="black" cx="146" cy="-549" rx="27" ry="27"/>
<text text-anchor="middle" x="146" y="-545.3" font-family="Times-Roman" font-size="14.00" fill="#000000">4</text>
</g>
<!-- 1&#45;&gt;4 -->
<g id="edge6" class="edge">
<title>1&#45;&gt;4</title>
<path fill="none" stroke="black" d="M169.49,-783.5C163.53,-758.95 155.04,-720.7 151,-687 146.92,-652.95 145.85,-613.83 145.69,-586.13"/>
<polygon fill="black" stroke="black" points="149.19,-586.1 145.67,-576.11 142.19,-586.12 149.19,-586.1"/>
<text text-anchor="middle" x="169" y="-675.8" font-family="Times-Roman" font-size="14.00">d3v2</text>
</g>
<!-- 5 -->
<g id="node6" class="node">
<title>5</title>
<ellipse fill="#b30000" stroke="black" cx="201" cy="-462" rx="27" ry="27"/>
<text text-anchor="middle" x="201" y="-458.3" font-family="Times-Roman" font-size="14.00" fill="#ffffff">5</text>
</g>
<!-- 1&#45;&gt;5 -->
<g id="edge8" class="edge">
<title>1&#45;&gt;5</title>
<path fill="none" stroke="black" d="M187.04,-785C193.74,-768.27 201,-745.23 201,-724 201,-724 201,-724 201,-548 201,-532.09 201,-514.5 201,-499.47"/>
<polygon fill="black" stroke="black" points="204.5,-499.04 201,-489.04 197.5,-499.04 204.5,-499.04"/>
<text text-anchor="middle" x="219" y="-632.3" font-family="Times-Roman" font-size="14.00">d3v2</text>
</g>
<!-- 6 -->
<g id="node7" class="node">
<title>6</title>
<ellipse fill="#ff00ae" stroke="black" cx="265" cy="-375" rx="27" ry="27"/>
<text text-anchor="middle" x="265" y="-371.3" font-family="Times-Roman" font-size="14.00" fill="#000000">6</text>
</g>
<!-- 1&#45;&gt;6 -->
<g id="edge10" class="edge">
<title>1&#45;&gt;6</title>
<path fill="none" stroke="black" d="M200.79,-798.26C227.13,-784.98 265,-759.68 265,-724 265,-724 265,-724 265,-461 265,-445.09 265,-427.5 265,-412.47"/>
<polygon fill="black" stroke="black" points="268.5,-412.04 265,-402.04 261.5,-412.04 268.5,-412.04"/>
<text text-anchor="middle" x="283" y="-588.8" font-family="Times-Roman" font-size="14.00">d3v2</text>
</g>
<!-- 2&#45;&gt;3 -->
<g id="edge3" class="edge">
<title>2&#45;&gt;3</title>
<path fill="none" stroke="black" d="M30.13,-696.11C32.03,-687.87 35.09,-679.07 40,-672 44.63,-665.33 50.97,-659.52 57.58,-654.65"/>
<polygon fill="black" stroke="black" points="59.65,-657.47 65.99,-648.99 55.74,-651.67 59.65,-657.47"/>
<text text-anchor="middle" x="58" y="-675.8" font-family="Times-Roman" font-size="14.00">d4v2</text>
</g>
<!-- 3&#45;&gt;4 -->
<g id="edge5" class="edge">
<title>3&#45;&gt;4</title>
<path fill="none" stroke="black" d="M91.6,-609.01C93.01,-600.85 95.54,-592.13 100,-585 103.72,-579.05 108.83,-573.75 114.31,-569.17"/>
<polygon fill="black" stroke="black" points="116.6,-571.83 122.46,-563.01 112.37,-566.25 116.6,-571.83"/>
<text text-anchor="middle" x="118" y="-588.8" font-family="Times-Roman" font-size="14.00">d5v2</text>
</g>
<!-- 4&#45;&gt;5 -->
<g id="edge7" class="edge">
<title>4&#45;&gt;5</title>
<path fill="none" stroke="black" d="M144.48,-522.03C145.04,-513.88 146.81,-505.15 151,-498 155.18,-490.86 161.46,-484.83 168.17,-479.88"/>
<polygon fill="black" stroke="black" points="170.35,-482.63 176.77,-474.2 166.5,-476.79 170.35,-482.63"/>
<text text-anchor="middle" x="169" y="-501.8" font-family="Times-Roman" font-size="14.00">d7v2</text>
</g>
<!-- 5&#45;&gt;6 -->
<g id="edge9" class="edge">
<title>5&#45;&gt;6</title>
<path fill="none" stroke="black" d="M204.71,-435.09C206.78,-426.86 210,-418.06 215,-411 219.7,-404.37 226.06,-398.58 232.68,-393.71"/>
<polygon fill="black" stroke="black" points="234.74,-396.54 241.08,-388.05 230.83,-390.73 234.74,-396.54"/>
<text text-anchor="middle" x="233" y="-414.8" font-family="Times-Roman" font-size="14.00">d8v2</text>
</g>
<!-- 7 -->
<g id="node8" class="node">
<title>7</title>
<ellipse fill="#00ff00" stroke="black" cx="409" cy="-288" rx="27" ry="27"/>
<text text-anchor="middle" x="409" y="-284.3" font-family="Times-Roman" font-size="14.00" fill="#000000">7</text>
</g>
<!-- 6&#45;&gt;7 -->
<g id="edge11" class="edge">
<title>6&#45;&gt;7</title>
<path fill="none" stroke="black" d="M287.82,-360.53C311.9,-346.32 350.04,-323.8 377.1,-307.83"/>
<polygon fill="black" stroke="black" points="378.98,-310.78 385.81,-302.69 375.42,-304.76 378.98,-310.78"/>
<text text-anchor="middle" x="367.5" y="-327.8" font-family="Times-Roman" font-size="14.00">d11v2</text>
</g>
<!-- 8 -->
<g id="node9" class="node">
<title>8</title>
<ellipse fill="#ffff00" stroke="black" cx="493" cy="-201" rx="27" ry="27"/>
<text text-anchor="middle" x="493" y="-197.3" font-family="Times-Roman" font-size="14.00" fill="#000000">8</text>
</g>
<!-- 7&#45;&gt;8 -->
<g id="edge12" class="edge">
<title>7&#45;&gt;8</title>
<path fill="none" stroke="black" d="M427.64,-268.14C439.28,-256.36 454.42,-241.04 467.2,-228.1"/>
<polygon fill="black" stroke="black" points="469.87,-230.38 474.41,-220.81 464.89,-225.46 469.87,-230.38"/>
<text text-anchor="middle" x="478.5" y="-240.8" font-family="Times-Roman" font-size="14.00">d12v2</text>
</g>
<!-- 9 -->
<g id="node10" class="node">
<title>9</title>
<ellipse fill="#eb0000" stroke="black" cx="514" cy="-114" rx="27" ry="27"/>
<text text-anchor="middle" x="514" y="-110.3" font-family="Times-Roman" font-size="14.00" fill="#ffffff">9</text>
</g>
<!-- 8&#45;&gt;9 -->
<g id="edge13" class="edge">
<title>8&#45;&gt;9</title>
<path fill="none" stroke="black" d="M499.3,-174.5C501.17,-166.93 503.25,-158.51 505.25,-150.43"/>
<polygon fill="black" stroke="black" points="508.7,-151.03 507.7,-140.48 501.91,-149.35 508.7,-151.03"/>
<text text-anchor="middle" x="526.5" y="-153.8" font-family="Times-Roman" font-size="14.00">d13v2</text>
</g>
<!-- 9&#45;&gt;28 -->
<g id="edge43" class="edge">
<title>9&#45;&gt;28</title>
<path fill="none" stroke="#024b30" stroke-width="2" d="M527.37,-90.42C533.86,-80.97 542.34,-70.47 552,-63 566.29,-51.96 584.56,-43.8 600.41,-38.15"/>
<polygon fill="#024b30" stroke="#024b30" stroke-width="2" points="601.55,-41.46 609.91,-34.96 599.31,-34.83 601.55,-41.46"/>
<text text-anchor="middle" x="579.5" y="-66.8" font-family="Times-Roman" font-size="14.00">[d15v2]</text>
</g>
<!-- 11 -->
<g id="node12" class="node">
<title>11</title>
<ellipse fill="#ffffff" stroke="black" cx="320" cy="-723" rx="27" ry="27"/>
<text text-anchor="middle" x="320" y="-719.3" font-family="Times-Roman" font-size="14.00" fill="#000000">11</text>
</g>
<!-- 10&#45;&gt;11 -->
<g id="edge15" class="edge">
<title>10&#45;&gt;11</title>
<path fill="none" stroke="black" d="M448.13,-806.53C409.18,-802.36 339.94,-792.5 324,-774 320.57,-770.02 318.53,-765.14 317.43,-760"/>
<polygon fill="black" stroke="black" points="320.9,-759.54 316.32,-749.98 313.94,-760.31 320.9,-759.54"/>
<text text-anchor="middle" x="346.5" y="-762.8" font-family="Times-Roman" font-size="14.00">d17v2</text>
</g>
<!-- 12 -->
<g id="node13" class="node">
<title>12</title>
<ellipse fill="#ff0000" stroke="black" cx="374" cy="-636" rx="27" ry="27"/>
<text text-anchor="middle" x="374" y="-632.3" font-family="Times-Roman" font-size="14.00" fill="#000000">12</text>
</g>
<!-- 10&#45;&gt;12 -->
<g id="edge17" class="edge">
<title>10&#45;&gt;12</title>
<path fill="none" stroke="black" d="M451.12,-797.09C433.4,-786.99 410.12,-770.83 397,-750 382.57,-727.08 376.97,-696.83 374.89,-673.4"/>
<polygon fill="black" stroke="black" points="378.36,-672.89 374.17,-663.16 371.38,-673.38 378.36,-672.89"/>
<text text-anchor="middle" x="419.5" y="-719.3" font-family="Times-Roman" font-size="14.00">d18v2</text>
</g>
<!-- 13 -->
<g id="node14" class="node">
<title>13</title>
<ellipse fill="#ff00ae" stroke="black" cx="434" cy="-549" rx="27" ry="27"/>
<text text-anchor="middle" x="434" y="-545.3" font-family="Times-Roman" font-size="14.00" fill="#000000">13</text>
</g>
<!-- 10&#45;&gt;13 -->
<g id="edge19" class="edge">
<title>10&#45;&gt;13</title>
<path fill="none" stroke="black" d="M470.38,-783.28C465.48,-759.68 456.42,-724.21 442,-696 439.69,-691.49 436.66,-691.79 435,-687 423.62,-654.22 424.88,-614.32 428.08,-586.05"/>
<polygon fill="black" stroke="black" points="431.59,-586.19 429.37,-575.83 424.64,-585.31 431.59,-586.19"/>
<text text-anchor="middle" x="457.5" y="-675.8" font-family="Times-Roman" font-size="14.00">d18v2</text>
</g>
<!-- 14 -->
<g id="node15" class="node">
<title>14</title>
<ellipse fill="#b30000" stroke="black" cx="494" cy="-462" rx="27" ry="27"/>
<text text-anchor="middle" x="494" y="-458.3" font-family="Times-Roman" font-size="14.00" fill="#ffffff">14</text>
</g>
<!-- 10&#45;&gt;14 -->
<g id="edge21" class="edge">
<title>10&#45;&gt;14</title>
<path fill="none" stroke="black" d="M483.61,-784.04C488.64,-767.27 494,-744.56 494,-724 494,-724 494,-724 494,-548 494,-532.09 494,-514.5 494,-499.47"/>
<polygon fill="black" stroke="black" points="497.5,-499.04 494,-489.04 490.5,-499.04 497.5,-499.04"/>
<text text-anchor="middle" x="516.5" y="-632.3" font-family="Times-Roman" font-size="14.00">d18v2</text>
</g>
<!-- 15 -->
<g id="node16" class="node">
<title>15</title>
<ellipse fill="#ff00ae" stroke="black" cx="567" cy="-375" rx="27" ry="27"/>
<text text-anchor="middle" x="567" y="-371.3" font-family="Times-Roman" font-size="14.00" fill="#000000">15</text>
</g>
<!-- 10&#45;&gt;15 -->
<g id="edge23" class="edge">
<title>10&#45;&gt;15</title>
<path fill="none" stroke="black" d="M492.09,-788.99C495.65,-784.26 499.18,-779.1 502,-774 543.29,-699.4 567,-678.77 567,-593.5 567,-593.5 567,-593.5 567,-461 567,-445.09 567,-427.5 567,-412.47"/>
<polygon fill="black" stroke="black" points="570.5,-412.04 567,-402.04 563.5,-412.04 570.5,-412.04"/>
<text text-anchor="middle" x="589.5" y="-588.8" font-family="Times-Roman" font-size="14.00">d18v2</text>
</g>
<!-- 11&#45;&gt;12 -->
<g id="edge16" class="edge">
<title>11&#45;&gt;12</title>
<path fill="none" stroke="black" d="M317.88,-696.07C318.28,-687.92 319.89,-679.18 324,-672 328.11,-664.82 334.36,-658.77 341.06,-653.82"/>
<polygon fill="black" stroke="black" points="343.25,-656.57 349.67,-648.14 339.4,-650.73 343.25,-656.57"/>
<text text-anchor="middle" x="346.5" y="-675.8" font-family="Times-Roman" font-size="14.00">d19v2</text>
</g>
<!-- 12&#45;&gt;13 -->
<g id="edge18" class="edge">
<title>12&#45;&gt;13</title>
<path fill="none" stroke="black" d="M369.77,-609.26C369.61,-601.03 370.8,-592.2 375,-585 380.54,-575.49 389.78,-568.28 399.32,-562.95"/>
<polygon fill="black" stroke="black" points="401.05,-566 408.44,-558.41 397.93,-559.74 401.05,-566"/>
<text text-anchor="middle" x="397.5" y="-588.8" font-family="Times-Roman" font-size="14.00">d20v2</text>
</g>
<!-- 13&#45;&gt;14 -->
<g id="edge20" class="edge">
<title>13&#45;&gt;14</title>
<path fill="none" stroke="black" d="M429.77,-522.26C429.61,-514.03 430.8,-505.2 435,-498 440.54,-488.49 449.78,-481.28 459.32,-475.95"/>
<polygon fill="black" stroke="black" points="461.05,-479 468.44,-471.41 457.93,-472.74 461.05,-479"/>
<text text-anchor="middle" x="457.5" y="-501.8" font-family="Times-Roman" font-size="14.00">d21v2</text>
</g>
<!-- 14&#45;&gt;15 -->
<g id="edge22" class="edge">
<title>14&#45;&gt;15</title>
<path fill="none" stroke="black" d="M497.34,-435.13C499.38,-426.8 502.68,-417.94 508,-411 514.52,-402.49 523.75,-395.64 532.98,-390.33"/>
<polygon fill="black" stroke="black" points="534.88,-393.29 542.1,-385.54 531.62,-387.09 534.88,-393.29"/>
<text text-anchor="middle" x="530.5" y="-414.8" font-family="Times-Roman" font-size="14.00">d22v2</text>
</g>
<!-- 16 -->
<g id="node17" class="node">
<title>16</title>
<ellipse fill="#00ff00" stroke="black" cx="568" cy="-288" rx="27" ry="27"/>
<text text-anchor="middle" x="568" y="-284.3" font-family="Times-Roman" font-size="14.00" fill="#000000">16</text>
</g>
<!-- 15&#45;&gt;16 -->
<g id="edge24" class="edge">
<title>15&#45;&gt;16</title>
<path fill="none" stroke="black" d="M567.31,-347.57C567.39,-340.47 567.49,-332.66 567.57,-325.13"/>
<polygon fill="black" stroke="black" points="571.07,-325.16 567.69,-315.12 564.08,-325.08 571.07,-325.16"/>
<text text-anchor="middle" x="589.5" y="-327.8" font-family="Times-Roman" font-size="14.00">d23v2</text>
</g>
<!-- 17 -->
<g id="node18" class="node">
<title>17</title>
<ellipse fill="#ffff00" stroke="black" cx="579" cy="-201" rx="27" ry="27"/>
<text text-anchor="middle" x="579" y="-197.3" font-family="Times-Roman" font-size="14.00" fill="#000000">17</text>
</g>
<!-- 16&#45;&gt;17 -->
<g id="edge25" class="edge">
<title>16&#45;&gt;17</title>
<path fill="none" stroke="black" d="M571.36,-261.04C572.31,-253.7 573.36,-245.59 574.37,-237.79"/>
<polygon fill="black" stroke="black" points="577.85,-238.17 575.66,-227.81 570.91,-237.27 577.85,-238.17"/>
<text text-anchor="middle" x="596.5" y="-240.8" font-family="Times-Roman" font-size="14.00">d24v2</text>
</g>
<!-- 18 -->
<g id="node19" class="node">
<title>18</title>
<ellipse fill="#eb0000" stroke="black" cx="592" cy="-114" rx="27" ry="27"/>
<text text-anchor="middle" x="592" y="-110.3" font-family="Times-Roman" font-size="14.00" fill="#ffffff">18</text>
</g>
<!-- 17&#45;&gt;18 -->
<g id="edge26" class="edge">
<title>17&#45;&gt;18</title>
<path fill="none" stroke="black" d="M582.97,-174.04C584.09,-166.7 585.33,-158.59 586.53,-150.79"/>
<polygon fill="black" stroke="black" points="590,-151.22 588.05,-140.81 583.08,-150.16 590,-151.22"/>
<text text-anchor="middle" x="608.5" y="-153.8" font-family="Times-Roman" font-size="14.00">d25v2</text>
</g>
<!-- 18&#45;&gt;28 -->
<g id="edge41" class="edge">
<title>18&#45;&gt;28</title>
<path fill="none" stroke="#024b30" stroke-width="2" d="M604.02,-89.77C608.73,-80.68 614.21,-70.1 619.28,-60.29"/>
<polygon fill="#024b30" stroke="#024b30" stroke-width="2" points="622.5,-61.69 623.99,-51.2 616.29,-58.47 622.5,-61.69"/>
<text text-anchor="middle" x="643.5" y="-66.8" font-family="Times-Roman" font-size="14.00">[d26v2]</text>
</g>
<!-- 20 -->
<g id="node21" class="node">
<title>20</title>
<ellipse fill="#ffffff" stroke="black" cx="587" cy="-723" rx="27" ry="27"/>
<text text-anchor="middle" x="587" y="-719.3" font-family="Times-Roman" font-size="14.00" fill="#000000">20</text>
</g>
<!-- 19&#45;&gt;20 -->
<g id="edge28" class="edge">
<title>19&#45;&gt;20</title>
<path fill="none" stroke="black" d="M658.82,-806.77C636.81,-803.41 606.93,-795.01 591,-774 587.86,-769.86 585.96,-764.92 584.91,-759.8"/>
<polygon fill="black" stroke="black" points="588.38,-759.41 583.8,-749.86 581.43,-760.18 588.38,-759.41"/>
<text text-anchor="middle" x="613.5" y="-762.8" font-family="Times-Roman" font-size="14.00">d28v2</text>
</g>
<!-- 21 -->
<g id="node22" class="node">
<title>21</title>
<ellipse fill="#ff0000" stroke="black" cx="641" cy="-636" rx="27" ry="27"/>
<text text-anchor="middle" x="641" y="-632.3" font-family="Times-Roman" font-size="14.00" fill="#000000">21</text>
</g>
<!-- 19&#45;&gt;21 -->
<g id="edge30" class="edge">
<title>19&#45;&gt;21</title>
<path fill="none" stroke="black" d="M676.04,-784.89C671.92,-774.31 667.34,-761.67 664,-750 656.72,-724.58 650.83,-695.31 646.83,-672.93"/>
<polygon fill="black" stroke="black" points="650.24,-672.11 645.08,-662.86 643.35,-673.31 650.24,-672.11"/>
<text text-anchor="middle" x="686.5" y="-719.3" font-family="Times-Roman" font-size="14.00">d29v2</text>
</g>
<!-- 22 -->
<g id="node23" class="node">
<title>22</title>
<ellipse fill="#ff00ae" stroke="black" cx="694" cy="-549" rx="27" ry="27"/>
<text text-anchor="middle" x="694" y="-545.3" font-family="Times-Roman" font-size="14.00" fill="#000000">22</text>
</g>
<!-- 19&#45;&gt;22 -->
<g id="edge32" class="edge">
<title>19&#45;&gt;22</title>
<path fill="none" stroke="black" d="M697.49,-785.48C702.04,-774.91 706.72,-762.1 709,-750 713.43,-726.41 716.79,-718.7 709,-696 707.36,-691.21 703.78,-691.74 702,-687 689.77,-654.47 688.88,-614.53 690.38,-586.19"/>
<polygon fill="black" stroke="black" points="693.89,-586.14 691.05,-575.93 686.9,-585.68 693.89,-586.14"/>
<text text-anchor="middle" x="724.5" y="-675.8" font-family="Times-Roman" font-size="14.00">d29v2</text>
</g>
<!-- 23 -->
<g id="node24" class="node">
<title>23</title>
<ellipse fill="#b30000" stroke="black" cx="750" cy="-462" rx="27" ry="27"/>
<text text-anchor="middle" x="750" y="-458.3" font-family="Times-Roman" font-size="14.00" fill="#ffffff">23</text>
</g>
<!-- 19&#45;&gt;23 -->
<g id="edge34" class="edge">
<title>19&#45;&gt;23</title>
<path fill="none" stroke="black" d="M705.18,-790.91C709.85,-785.78 714.5,-779.96 718,-774 738.65,-738.86 740.2,-727.19 747,-687 758.08,-621.5 755.71,-543.69 752.91,-499.15"/>
<polygon fill="black" stroke="black" points="756.39,-498.85 752.23,-489.1 749.41,-499.32 756.39,-498.85"/>
<text text-anchor="middle" x="776.5" y="-632.3" font-family="Times-Roman" font-size="14.00">d29v2</text>
</g>
<!-- 24 -->
<g id="node25" class="node">
<title>24</title>
<ellipse fill="#ff00ae" stroke="black" cx="750" cy="-375" rx="27" ry="27"/>
<text text-anchor="middle" x="750" y="-371.3" font-family="Times-Roman" font-size="14.00" fill="#000000">24</text>
</g>
<!-- 19&#45;&gt;24 -->
<g id="edge36" class="edge">
<title>19&#45;&gt;24</title>
<path fill="none" stroke="black" d="M712.85,-805.15C753.76,-797.61 827,-776.74 827,-724 827,-724 827,-724 827,-461 827,-432.65 803.18,-409.54 782.04,-394.61"/>
<polygon fill="black" stroke="black" points="783.78,-391.57 773.52,-388.92 779.89,-397.39 783.78,-391.57"/>
<text text-anchor="middle" x="849.5" y="-588.8" font-family="Times-Roman" font-size="14.00">d29v2</text>
</g>
<!-- 20&#45;&gt;21 -->
<g id="edge29" class="edge">
<title>20&#45;&gt;21</title>
<path fill="none" stroke="black" d="M584.88,-696.07C585.28,-687.92 586.89,-679.18 591,-672 595.11,-664.82 601.36,-658.77 608.06,-653.82"/>
<polygon fill="black" stroke="black" points="610.25,-656.57 616.67,-648.14 606.4,-650.73 610.25,-656.57"/>
<text text-anchor="middle" x="613.5" y="-675.8" font-family="Times-Roman" font-size="14.00">d30v2</text>
</g>
<!-- 21&#45;&gt;22 -->
<g id="edge31" class="edge">
<title>21&#45;&gt;22</title>
<path fill="none" stroke="black" d="M637,-609.14C636.9,-600.99 638.05,-592.24 642,-585 646.27,-577.17 653.13,-570.77 660.49,-565.68"/>
<polygon fill="black" stroke="black" points="662.55,-568.53 669.23,-560.31 658.88,-562.56 662.55,-568.53"/>
<text text-anchor="middle" x="664.5" y="-588.8" font-family="Times-Roman" font-size="14.00">d31v2</text>
</g>
<!-- 22&#45;&gt;23 -->
<g id="edge33" class="edge">
<title>22&#45;&gt;23</title>
<path fill="none" stroke="black" d="M689.89,-522.08C689.78,-513.93 690.96,-505.19 695,-498 699.86,-489.36 707.83,-482.53 716.21,-477.29"/>
<polygon fill="black" stroke="black" points="717.96,-480.33 724.99,-472.4 714.55,-474.21 717.96,-480.33"/>
<text text-anchor="middle" x="717.5" y="-501.8" font-family="Times-Roman" font-size="14.00">d32v2</text>
</g>
<!-- 23&#45;&gt;24 -->
<g id="edge35" class="edge">
<title>23&#45;&gt;24</title>
<path fill="none" stroke="black" d="M750,-434.57C750,-427.47 750,-419.66 750,-412.13"/>
<polygon fill="black" stroke="black" points="753.5,-412.12 750,-402.12 746.5,-412.12 753.5,-412.12"/>
<text text-anchor="middle" x="772.5" y="-414.8" font-family="Times-Roman" font-size="14.00">d33v2</text>
</g>
<!-- 25 -->
<g id="node26" class="node">
<title>25</title>
<ellipse fill="#00ff00" stroke="black" cx="750" cy="-288" rx="27" ry="27"/>
<text text-anchor="middle" x="750" y="-284.3" font-family="Times-Roman" font-size="14.00" fill="#000000">25</text>
</g>
<!-- 24&#45;&gt;25 -->
<g id="edge37" class="edge">
<title>24&#45;&gt;25</title>
<path fill="none" stroke="black" d="M750,-347.57C750,-340.47 750,-332.66 750,-325.13"/>
<polygon fill="black" stroke="black" points="753.5,-325.12 750,-315.12 746.5,-325.12 753.5,-325.12"/>
<text text-anchor="middle" x="772.5" y="-327.8" font-family="Times-Roman" font-size="14.00">d34v2</text>
</g>
<!-- 26 -->
<g id="node27" class="node">
<title>26</title>
<ellipse fill="#ffff00" stroke="black" cx="729" cy="-201" rx="27" ry="27"/>
<text text-anchor="middle" x="729" y="-197.3" font-family="Times-Roman" font-size="14.00" fill="#000000">26</text>
</g>
<!-- 25&#45;&gt;26 -->
<g id="edge38" class="edge">
<title>25&#45;&gt;26</title>
<path fill="none" stroke="black" d="M743.7,-261.5C741.83,-253.93 739.75,-245.51 737.75,-237.43"/>
<polygon fill="black" stroke="black" points="741.09,-236.35 735.3,-227.48 734.3,-238.03 741.09,-236.35"/>
<text text-anchor="middle" x="762.5" y="-240.8" font-family="Times-Roman" font-size="14.00">d35v2</text>
</g>
<!-- 27 -->
<g id="node28" class="node">
<title>27</title>
<ellipse fill="#eb0000" stroke="black" cx="727" cy="-114" rx="27" ry="27"/>
<text text-anchor="middle" x="727" y="-110.3" font-family="Times-Roman" font-size="14.00" fill="#ffffff">27</text>
</g>
<!-- 26&#45;&gt;27 -->
<g id="edge39" class="edge">
<title>26&#45;&gt;27</title>
<path fill="none" stroke="black" d="M728.38,-173.57C728.21,-166.47 728.03,-158.66 727.85,-151.13"/>
<polygon fill="black" stroke="black" points="731.35,-151.04 727.61,-141.12 724.35,-151.2 731.35,-151.04"/>
<text text-anchor="middle" x="750.5" y="-153.8" font-family="Times-Roman" font-size="14.00">d36v2</text>
</g>
<!-- 27&#45;&gt;28 -->
<g id="edge42" class="edge">
<title>27&#45;&gt;28</title>
<path fill="none" stroke="#024b30" stroke-width="2" d="M707.89,-94.32C698.12,-84.85 686.01,-73.23 675,-63 671.36,-59.62 667.5,-56.09 663.67,-52.62"/>
<polygon fill="#024b30" stroke="#024b30" stroke-width="2" points="665.73,-49.77 655.96,-45.67 661.05,-54.97 665.73,-49.77"/>
<text text-anchor="middle" x="717.5" y="-66.8" font-family="Times-Roman" font-size="14.00">[d37v2]</text>
</g>
<!-- key -->
<g id="node30" class="node">
<title>key</title>
<polygon fill="none" stroke="black" points="639,-1027.5 639,-1048.5 988,-1048.5 988,-1027.5 639,-1027.5"/>
<text text-anchor="start" x="692" y="-1034.3" font-family="Times-Roman" font-size="14.00">lysozyme_in_water_full.generate_topology</text>
<polygon fill="#0000ff" stroke="transparent" points="988,-1027.5 988,-1048.5 999,-1048.5 999,-1027.5 988,-1027.5"/>
<polygon fill="none" stroke="black" points="988,-1027.5 988,-1048.5 999,-1048.5 999,-1027.5 988,-1027.5"/>
<text text-anchor="start" x="991" y="-1034.3" font-family="Times-Roman" font-size="14.00"> </text>
<polygon fill="none" stroke="black" points="639,-1006.5 639,-1027.5 988,-1027.5 988,-1006.5 639,-1006.5"/>
<text text-anchor="start" x="745" y="-1013.3" font-family="Times-Roman" font-size="14.00">lysozyme_in_water_full.define_box</text>
<polygon fill="#ffffff" stroke="transparent" points="988,-1006.5 988,-1027.5 999,-1027.5 999,-1006.5 988,-1006.5"/>
<polygon fill="none" stroke="black" points="988,-1006.5 988,-1027.5 999,-1027.5 999,-1006.5 988,-1006.5"/>
<text text-anchor="start" x="991" y="-1013.3" font-family="Times-Roman" font-size="14.00"> </text>
<polygon fill="none" stroke="black" points="639,-985.5 639,-1006.5 988,-1006.5 988,-985.5 639,-985.5"/>
<text text-anchor="start" x="738" y="-992.3" font-family="Times-Roman" font-size="14.00">lysozyme_in_water_full.add_solvate</text>
<polygon fill="#ff0000" stroke="transparent" points="988,-985.5 988,-1006.5 999,-1006.5 999,-985.5 988,-985.5"/>
<polygon fill="none" stroke="black" points="988,-985.5 988,-1006.5 999,-1006.5 999,-985.5 988,-985.5"/>
<text text-anchor="start" x="991" y="-992.3" font-family="Times-Roman" font-size="14.00"> </text>
<polygon fill="none" stroke="black" points="639,-964.5 639,-985.5 988,-985.5 988,-964.5 639,-964.5"/>
<text text-anchor="start" x="728" y="-971.3" font-family="Times-Roman" font-size="14.00">lysozyme_in_water_full.assemble_tpr</text>
<polygon fill="#ff00ae" stroke="transparent" points="988,-964.5 988,-985.5 999,-985.5 999,-964.5 988,-964.5"/>
<polygon fill="none" stroke="black" points="988,-964.5 988,-985.5 999,-985.5 999,-964.5 988,-964.5"/>
<text text-anchor="start" x="991" y="-971.3" font-family="Times-Roman" font-size="14.00"> </text>
<polygon fill="none" stroke="black" points="639,-943.5 639,-964.5 988,-964.5 988,-943.5 639,-943.5"/>
<text text-anchor="start" x="642" y="-950.3" font-family="Times-Roman" font-size="14.00">lysozyme_in_water_full.replace_solvent_with_ions</text>
<polygon fill="#b30000" stroke="transparent" points="988,-943.5 988,-964.5 999,-964.5 999,-943.5 988,-943.5"/>
<polygon fill="none" stroke="black" points="988,-943.5 988,-964.5 999,-964.5 999,-943.5 988,-943.5"/>
<text text-anchor="start" x="991" y="-950.3" font-family="Times-Roman" font-size="14.00"> </text>
<polygon fill="none" stroke="black" points="639,-922.5 639,-943.5 988,-943.5 988,-922.5 639,-922.5"/>
<text text-anchor="start" x="677" y="-929.3" font-family="Times-Roman" font-size="14.00">lysozyme_in_water_full.energy_minimization</text>
<polygon fill="#00ff00" stroke="transparent" points="988,-922.5 988,-943.5 999,-943.5 999,-922.5 988,-922.5"/>
<polygon fill="none" stroke="black" points="988,-922.5 988,-943.5 999,-943.5 999,-922.5 988,-922.5"/>
<text text-anchor="start" x="991" y="-929.3" font-family="Times-Roman" font-size="14.00"> </text>
<polygon fill="none" stroke="black" points="639,-901.5 639,-922.5 988,-922.5 988,-901.5 639,-901.5"/>
<text text-anchor="start" x="714" y="-908.3" font-family="Times-Roman" font-size="14.00">lysozyme_in_water_full.energy_analisis</text>
<polygon fill="#ffff00" stroke="transparent" points="988,-901.5 988,-922.5 999,-922.5 999,-901.5 988,-901.5"/>
<polygon fill="none" stroke="black" points="988,-901.5 988,-922.5 999,-922.5 999,-901.5 988,-901.5"/>
<text text-anchor="start" x="991" y="-908.3" font-family="Times-Roman" font-size="14.00"> </text>
<polygon fill="none" stroke="black" points="639,-880.5 639,-901.5 988,-901.5 988,-880.5 639,-880.5"/>
<text text-anchor="start" x="682" y="-887.3" font-family="Times-Roman" font-size="14.00">lysozyme_in_water_full.convert_xvg_to_png</text>
<polygon fill="#eb0000" stroke="transparent" points="988,-880.5 988,-901.5 999,-901.5 999,-880.5 988,-880.5"/>
<polygon fill="none" stroke="black" points="988,-880.5 988,-901.5 999,-901.5 999,-880.5 988,-880.5"/>
<text text-anchor="start" x="991" y="-887.3" font-family="Times-Roman" font-size="14.00"> </text>
<polygon fill="none" stroke="black" points="639,-859.5 639,-880.5 988,-880.5 988,-859.5 639,-859.5"/>
<text text-anchor="start" x="723" y="-866.3" font-family="Times-Roman" font-size="14.00">lysozyme_in_water_full.merge_results</text>
<polygon fill="#00a200" stroke="transparent" points="988,-859.5 988,-880.5 999,-880.5 999,-859.5 988,-859.5"/>
<polygon fill="none" stroke="black" points="988,-859.5 988,-880.5 999,-880.5 999,-859.5 988,-859.5"/>
<text text-anchor="start" x="991" y="-866.3" font-family="Times-Roman" font-size="14.00"> </text>
</g>
</g>
</svg>
